<svg width="73" height="13" viewBox="0 0 73 13" fill="none" xmlns="http://www.w3.org/2000/svg">
<path d="M3.738 13H0V9.85H1.05L2.541 0.399999H4.305L5.04 4.915L3.738 13ZM5.082 7.33H5.859L4.746 0.399999H7.959L9.45 9.85H10.5V13H6.762L6.258 9.85H4.683L5.082 7.33ZM13.0167 0.399999V3.55H12.3867V5.125H9.76172V0.399999H13.0167ZM17.0067 3.55V0.399999H20.2617V5.125H17.6367V3.55H17.0067ZM16.5867 0.399999V9.85H17.6367V13H12.3867V9.85H13.4367V0.399999H16.5867ZM25.9276 13V9.85H27.6076V8.275H30.7576V13H25.9276ZM25.5076 13H21.3076V9.85H22.3576V3.55H21.3076V0.399999H26.5576V3.55H25.5076V13ZM36.4276 5.65H38.1076V7.75H36.4276V5.65ZM36.0076 13H31.8076V9.85H32.8576V3.55H31.8076V0.399999H36.0076V13ZM36.4276 9.85H38.1076V8.275H41.2576V13H36.4276V9.85ZM36.4276 0.399999H41.2576V5.125H38.1076V3.55H36.4276V0.399999ZM45.5626 0.399999V3.55H44.9326V5.125H42.3076V0.399999H45.5626ZM49.5526 3.55V0.399999H52.8076V5.125H50.1826V3.55H49.5526ZM49.1326 0.399999V9.85H50.1826V13H44.9326V9.85H45.9826V0.399999H49.1326ZM56.1355 13H52.3975V9.85H53.4475L54.9385 0.399999H56.7025L57.4375 4.915L56.1355 13ZM57.4795 7.33H58.2565L57.1435 0.399999H60.3565L61.8475 9.85H62.8975V13H59.1595L58.6555 9.85H57.0805L57.4795 7.33ZM68.4584 0.399999H72.5534V4.6H69.4034V3.55H68.4584V0.399999ZM68.0384 13H63.9434V8.8H67.0934V9.85H68.0384V13ZM68.4584 9.85H69.4034V8.695L63.9434 7.015V2.5L66.0434 0.399999H68.0384V3.55H67.0934V4.705L72.5534 6.385V10.9L70.4534 13H68.4584V9.85Z" fill="#187B63"/>
</svg>
