<svg width="75" height="13" viewBox="0 0 75 13" fill="none" xmlns="http://www.w3.org/2000/svg">
<path d="M6.3 9.85V7.75H4.62V5.65H6.3V3.55H4.62V0.399999H7.35L9.45 2.5V5.65L8.4 6.7L9.45 7.75V10.9L7.35 13H4.62V9.85H6.3ZM4.2 13H0V9.85H1.05V3.55H0V0.399999H4.2V13ZM14.238 13H10.5V9.85H11.55L13.041 0.399999H14.805L15.54 4.915L14.238 13ZM15.582 7.33H16.359L15.246 0.399999H18.459L19.95 9.85H21V13H17.262L16.758 9.85H15.183L15.582 7.33ZM26.6659 5.65H28.3459V3.55H26.6659V0.399999H29.3959L31.4959 2.5V6.175L30.4459 7.225L31.1599 9.85H32.2099V13H28.7659L27.6109 8.8H26.6659V5.65ZM26.2459 13H22.0459V9.85H23.0959V3.55H22.0459V0.399999H26.2459V13ZM39.5637 9.85V7.75H37.8837V5.65H39.5637V3.55H37.8837V0.399999H40.6137L42.7137 2.5V5.65L41.6637 6.7L42.7137 7.75V10.9L40.6137 13H37.8837V9.85H39.5637ZM37.4637 13H33.2637V9.85H34.3137V3.55H33.2637V0.399999H37.4637V13ZM48.3837 5.65H50.0637V7.75H48.3837V5.65ZM47.9637 13H43.7637V9.85H44.8137V3.55H43.7637V0.399999H47.9637V13ZM48.3837 9.85H50.0637V8.275H53.2137V13H48.3837V9.85ZM48.3837 0.399999H53.2137V5.125H50.0637V3.55H48.3837V0.399999ZM58.8837 13V9.85H60.5637V8.275H63.7137V13H58.8837ZM58.4637 13H54.2637V9.85H55.3137V3.55H54.2637V0.399999H59.5137V3.55H58.4637V13ZM69.3837 13V9.85H71.0637V8.275H74.2137V13H69.3837ZM68.9637 13H64.7637V9.85H65.8137V3.55H64.7637V0.399999H70.0137V3.55H68.9637V13Z" fill="#187B63"/>
</svg>
