<svg width="104" height="17" viewBox="0 0 104 17" fill="none" xmlns="http://www.w3.org/2000/svg">
<path d="M4.662 7.55H5.775V9.125H8.925V4.4H4.662V7.55ZM4.662 13.85H5.775V12.275H8.925V17H4.662V13.85ZM4.242 17H2.1L0 14.9V6.5L2.1 4.4H4.242V7.55H3.15V13.85H4.242V17ZM13.7048 17H9.9668V13.85H11.0168L12.5078 4.4H14.2718L15.0068 8.915L13.7048 17ZM15.0488 11.33H15.8258L14.7128 4.4H17.9258L19.4168 13.85H20.4668V17H16.7288L16.2248 13.85H14.6498L15.0488 11.33ZM26.1327 17V13.85H27.8127V12.275H30.9627V17H26.1327ZM25.7127 17H21.5127V13.85H22.5627V7.55H21.5127V4.4H26.7627V7.55H25.7127V17ZM36.6327 9.65H38.3127V11.75H36.6327V9.65ZM36.2127 17H32.0127V13.85H33.0627V7.55H32.0127V4.4H36.2127V17ZM36.6327 13.85H38.3127V12.275H41.4627V17H36.6327V13.85ZM36.6327 4.4H41.4627V9.125H38.3127V7.55H36.6327V4.4ZM46.0827 4.4L50.9127 13.85H53.0127V17H49.4427L44.6127 7.55H42.5127V4.4H46.0827ZM48.8127 8.831V4.4H53.0127V7.55H51.9627V13.43H51.1647L48.8127 8.831ZM43.5627 7.97V13.85H42.5127V17H46.7127V12.569L44.3607 7.97H43.5627ZM58.6786 13.85H60.8836V7.55H58.6786V4.4H61.9336L64.0336 6.5V14.9L61.9336 17H58.6786V13.85ZM58.2586 17H54.0586V13.85H55.1086V7.55H54.0586V4.4H58.2586V17ZM68.8298 17H65.0918V13.85H66.1418L67.6328 4.4H69.3968L70.1318 8.915L68.8298 17ZM70.1738 11.33H70.9508L69.8378 4.4H73.0508L74.5418 13.85H75.5918V17H71.8538L71.3498 13.85H69.7748L70.1738 11.33ZM67.7168 1.481L73.3028 0.325999L73.8068 2.909L68.1368 3.56L67.7168 1.481ZM81.2577 9.65H82.9377V7.55H81.2577V4.4H83.9877L86.0877 6.5V10.175L85.0377 11.225L85.7517 13.85H86.8017V17H83.3577L82.2027 12.8H81.2577V9.65ZM80.8377 17H76.6377V13.85H77.6877V7.55H76.6377V4.4H80.8377V17ZM93.1055 4.4V7.55H92.0555V13.85H93.1055V17H87.8555V13.85H88.9055V7.55H87.8555V4.4H93.1055ZM100.976 4.4L103.076 6.5V14.9L100.976 17H98.8134V13.85H99.9264V7.55H98.8134V4.4H100.976ZM96.2514 17L94.1514 14.9V6.5L96.2514 4.4H98.3934V7.55H97.3014V13.85H98.3934V17H96.2514Z" fill="#187B63"/>
</svg>
