<svg width="77" height="13" viewBox="0 0 77 13" fill="none" xmlns="http://www.w3.org/2000/svg">
<path d="M4.662 3.55H5.775V5.125H8.925V0.399999H4.662V3.55ZM4.662 9.85H5.775V8.275H8.925V13H4.662V9.85ZM4.242 13H2.1L0 10.9V2.5L2.1 0.399999H4.242V3.55H3.15V9.85H4.242V13ZM14.5868 5.125H16.2668V0.399999H20.4668V3.55H19.4168V9.85H20.4668V13H16.2668V8.275H14.5868V5.125ZM14.1668 13H9.9668V9.85H11.0168V3.55H9.9668V0.399999H14.1668V13ZM26.1327 5.65H27.8127V7.75H26.1327V5.65ZM25.7127 13H21.5127V9.85H22.5627V3.55H21.5127V0.399999H25.7127V13ZM26.1327 9.85H27.8127V8.275H30.9627V13H26.1327V9.85ZM26.1327 0.399999H30.9627V5.125H27.8127V3.55H26.1327V0.399999ZM36.6747 3.55H37.7877V5.125H40.9377V0.399999H36.6747V3.55ZM36.6747 9.85H37.7877V8.275H40.9377V13H36.6747V9.85ZM36.2547 13H34.1127L32.0127 10.9V2.5L34.1127 0.399999H36.2547V3.55H35.1627V9.85H36.2547V13ZM46.1795 13H41.9795V9.85H43.0295V3.55H41.9795V0.399999H46.1795V13ZM46.5995 3.424V9.976L48.2795 13H51.6395V9.85H50.1695L48.4055 6.7L50.1695 3.55H51.6395V0.399999H48.2795L46.5995 3.424ZM52.6846 7.75V5.65H58.9846V7.75H52.6846ZM65.2764 0.399999V3.55H64.2264V9.85H65.2764V13H60.0264V9.85H61.0764V3.55H60.0264V0.399999H65.2764ZM69.8923 0.399999L74.7223 9.85H76.8223V13H73.2523L68.4223 3.55H66.3223V0.399999H69.8923ZM72.6223 4.831V0.399999H76.8223V3.55H75.7723V9.43H74.9743L72.6223 4.831ZM67.3723 3.97V9.85H66.3223V13H70.5223V8.569L68.1703 3.97H67.3723Z" fill="#187B63"/>
</svg>
