<svg width="99" height="13" viewBox="0 0 99 13" fill="none" xmlns="http://www.w3.org/2000/svg">
<path d="M4.62 5.65H6.3V7.75H4.62V5.65ZM4.2 13H0V9.85H1.05V3.55H0V0.399999H4.2V13ZM4.62 9.85H6.3V8.275H9.45V13H4.62V9.85ZM4.62 0.399999H9.45V5.125H6.3V3.55H4.62V0.399999ZM14.07 0.399999L18.9 9.85H21V13H17.43L12.6 3.55H10.5V0.399999H14.07ZM16.8 4.831V0.399999H21V3.55H19.95V9.43H19.152L16.8 4.831ZM11.55 3.97V9.85H10.5V13H14.7V8.569L12.348 3.97H11.55ZM26.6659 9.85H28.8709V3.55H26.6659V0.399999H29.9209L32.0209 2.5V10.9L29.9209 13H26.6659V9.85ZM26.2459 13H22.0459V9.85H23.0959V3.55H22.0459V0.399999H26.2459V13ZM38.7911 13V9.85H39.9041V0.399999H44.1041V3.55H43.0541V10.9L40.9541 13H38.7911ZM38.3711 13H36.2291L34.1291 10.9V3.55H33.0791V0.399999H37.2791V9.85H38.3711V13ZM49.7782 5.65H51.4582V3.55H49.7782V0.399999H52.5082L54.6082 2.5V6.175L53.5582 7.225L54.2722 9.85H55.3222V13H51.8782L50.7232 8.8H49.7782V5.65ZM49.3582 13H45.1582V9.85H46.2082V3.55H45.1582V0.399999H49.3582V13ZM60.114 13H56.376V9.85H57.426L58.917 0.399999H60.681L61.416 4.915L60.114 13ZM61.458 7.33H62.235L61.122 0.399999H64.335L65.826 9.85H66.876V13H63.138L62.634 9.85H61.059L61.458 7.33ZM71.4919 0.399999L76.3219 9.85H78.4219V13H74.8519L70.0219 3.55H67.9219V0.399999H71.4919ZM74.2219 4.831V0.399999H78.4219V3.55H77.3719V9.43H76.5739L74.2219 4.831ZM68.9719 3.97V9.85H67.9219V13H72.1219V8.569L69.7699 3.97H68.9719ZM84.1298 3.55H85.2428V5.125H88.3928V0.399999H84.1298V3.55ZM84.1298 9.85H85.2428V8.275H88.3928V13H84.1298V9.85ZM83.7098 13H81.5678L79.4678 10.9V2.5L81.5678 0.399999H83.7098V3.55H82.6178V9.85H83.7098V13ZM94.0546 5.65H95.7346V7.75H94.0546V5.65ZM93.6346 13H89.4346V9.85H90.4846V3.55H89.4346V0.399999H93.6346V13ZM94.0546 9.85H95.7346V8.275H98.8846V13H94.0546V9.85ZM94.0546 0.399999H98.8846V5.125H95.7346V3.55H94.0546V0.399999Z" fill="#187B63"/>
</svg>
