<svg width="64" height="13" viewBox="0 0 64 13" fill="none" xmlns="http://www.w3.org/2000/svg">
<path d="M6.3 5.65V8.275H4.62V5.65H6.3ZM9.45 0.399999V5.125H6.3V3.55H4.62V0.399999H9.45ZM4.2 9.85H5.25V13H0V9.85H1.05V3.55H0V0.399999H4.2V9.85ZM12.5359 13H8.79785V9.85H9.84785L11.3389 0.399999H13.1029L13.8379 4.915L12.5359 13ZM13.8799 7.33H14.6569L13.5439 0.399999H16.7569L18.2479 9.85H19.2979V13H15.5599L15.0559 9.85H13.4809L13.8799 7.33ZM21.8146 0.399999V3.55H21.1846V5.125H18.5596V0.399999H21.8146ZM25.8046 3.55V0.399999H29.0596V5.125H26.4346V3.55H25.8046ZM25.3846 0.399999V9.85H26.4346V13H21.1846V9.85H22.2346V0.399999H25.3846ZM35.8175 13V9.85H36.9305V0.399999H41.1305V3.55H40.0805V10.9L37.9805 13H35.8175ZM35.3975 13H33.2555L31.1555 10.9V3.55H30.1055V0.399999H34.3055V9.85H35.3975V13ZM46.8046 5.65H48.4846V3.55H46.8046V0.399999H49.5346L51.6346 2.5V6.175L50.5846 7.225L51.2986 9.85H52.3486V13H48.9046L47.7496 8.8H46.8046V5.65ZM46.3846 13H42.1846V9.85H43.2346V3.55H42.1846V0.399999H46.3846V13ZM57.1403 13H53.4023V9.85H54.4523L55.9433 0.399999H57.7073L58.4423 4.915L57.1403 13ZM58.4843 7.33H59.2613L58.1483 0.399999H61.3613L62.8523 9.85H63.9023V13H60.1643L59.6603 9.85H58.0853L58.4843 7.33Z" fill="#187B63"/>
</svg>
