<svg width="95" height="13" viewBox="0 0 95 13" fill="none" xmlns="http://www.w3.org/2000/svg">
<path d="M4.662 9.85H5.775V8.275H4.2V5.965H8.925V13H4.662V9.85ZM4.662 0.399999H8.925V5.125H5.775V3.55H4.662V0.399999ZM4.242 13V9.85H3.15V3.55H4.242V0.399999H2.1L0 2.5V10.9L2.1 13H4.242ZM16.5818 6.259V9.85H17.6318V13H12.3818V9.85H13.4318V7.162L11.4368 3.55H9.9668V0.399999H13.3268L16.5818 6.259ZM17.0648 6.259L18.5768 3.55H20.0468V0.399999H16.6868L15.2588 2.983L17.0648 6.259ZM27.4025 10.795L23.3915 3.55H21.1025V0.399999H24.6725L28.9355 8.044L27.4025 10.795ZM27.6545 4.873L30.1325 0.399999H33.7025V3.55H32.6525V9.85H33.7025V13H29.5025V8.212L27.6545 4.873ZM23.1395 3.97L25.3025 7.897V13H21.1025V9.85H22.1525V3.97H23.1395ZM38.3307 0.399999L43.1607 9.85H45.2607V13H41.6907L36.8607 3.55H34.7607V0.399999H38.3307ZM41.0607 4.831V0.399999H45.2607V3.55H44.2107V9.43H43.4127L41.0607 4.831ZM35.8107 3.97V9.85H34.7607V13H38.9607V8.569L36.6087 3.97H35.8107ZM50.0446 13H46.3066V9.85H47.3566L48.8476 0.399999H50.6116L51.3466 4.915L50.0446 13ZM51.3886 7.33H52.1656L51.0526 0.399999H54.2656L55.7566 9.85H56.8066V13H53.0686L52.5646 9.85H50.9896L51.3886 7.33ZM62.3675 0.399999H66.4625V4.6H63.3125V3.55H62.3675V0.399999ZM61.9475 13H57.8525V8.8H61.0025V9.85H61.9475V13ZM62.3675 9.85H63.3125V8.695L57.8525 7.015V2.5L59.9525 0.399999H61.9475V3.55H61.0025V4.705L66.4625 6.385V10.9L64.3625 13H62.3675V9.85ZM70.7667 0.399999V3.55H70.1367V5.125H67.5117V0.399999H70.7667ZM74.7567 3.55V0.399999H78.0117V5.125H75.3867V3.55H74.7567ZM74.3367 0.399999V9.85H75.3867V13H70.1367V9.85H71.1867V0.399999H74.3367ZM84.3076 0.399999V3.55H83.2576V9.85H84.3076V13H79.0576V9.85H80.1076V3.55H79.0576V0.399999H84.3076ZM90.0155 3.55H91.1285V5.125H94.2785V0.399999H90.0155V3.55ZM90.0155 9.85H91.1285V8.275H94.2785V13H90.0155V9.85ZM89.5955 13H87.4535L85.3535 10.9V2.5L87.4535 0.399999H89.5955V3.55H88.5035V9.85H89.5955V13Z" fill="#187B63"/>
</svg>
