<svg width="137" height="13" viewBox="0 0 137 13" fill="none" xmlns="http://www.w3.org/2000/svg">
<path d="M4.41 13V9.85H5.25V3.55H4.2V0.399999H9.45V3.55H8.4V10.9L6.3 13H4.41ZM3.99 9.85V13H2.1L0 10.9V8.275H3.15V9.85H3.99ZM14.7 9.85H15.75V13H10.5V9.85H11.55V3.55H10.5V0.399999H14.7V9.85ZM15.12 5.65H16.8V3.55H15.12V0.399999H17.85L19.95 2.5V6.7L17.85 8.8H15.12V5.65ZM21 7.75V5.65H27.3V7.75H21ZM33.0038 3.55H34.1168V5.125H37.2668V0.399999H33.0038V3.55ZM33.0038 9.85H34.1168V8.275H37.2668V13H33.0038V9.85ZM32.5838 13H30.4418L28.3418 10.9V2.5L30.4418 0.399999H32.5838V3.55H31.4918V9.85H32.5838V13ZM42.9286 5.65H44.6086V3.55H42.9286V0.399999H45.6586L47.7586 2.5V6.175L46.7086 7.225L47.4226 9.85H48.4726V13H45.0286L43.8736 8.8H42.9286V5.65ZM42.5086 13H38.3086V9.85H39.3586V3.55H38.3086V0.399999H42.5086V13ZM56.3514 0.399999L58.4514 2.5V10.9L56.3514 13H54.1884V9.85H55.3014V3.55H54.1884V0.399999H56.3514ZM51.6264 13L49.5264 10.9V2.5L51.6264 0.399999H53.7684V3.55H52.6764V9.85H53.7684V13H51.6264ZM64.0082 0.399999H68.1032V4.6H64.9532V3.55H64.0082V0.399999ZM63.5882 13H59.4932V8.8H62.6432V9.85H63.5882V13ZM64.0082 9.85H64.9532V8.695L59.4932 7.015V2.5L61.5932 0.399999H63.5882V3.55H62.6432V4.705L68.1032 6.385V10.9L66.0032 13H64.0082V9.85ZM73.6673 0.399999H77.7623V4.6H74.6123V3.55H73.6673V0.399999ZM73.2473 13H69.1523V8.8H72.3023V9.85H73.2473V13ZM73.6673 9.85H74.6123V8.695L69.1523 7.015V2.5L71.2523 0.399999H73.2473V3.55H72.3023V4.705L77.7623 6.385V10.9L75.6623 13H73.6673V9.85Z" fill="#303437"/>
<path d="M88.6815 5.125H90.3615V0.399999H94.5615V3.55H93.5115V9.85H94.5615V13H90.3615V8.275H88.6815V5.125ZM88.2615 13H84.0615V9.85H85.1115V3.55H84.0615V0.399999H88.2615V13ZM102.432 0.399999L104.532 2.5V10.9L102.432 13H100.269V9.85H101.382V3.55H100.269V0.399999H102.432ZM97.7074 13L95.6074 10.9V2.5L97.7074 0.399999H99.8494V3.55H98.7574V9.85H99.8494V13H97.7074ZM111.286 13V9.85H112.399V0.399999H116.599V3.55H115.549V10.9L113.449 13H111.286ZM110.866 13H108.724L106.624 10.9V3.55H105.574V0.399999H109.774V9.85H110.866V13ZM122.168 0.399999H126.263V4.6H123.113V3.55H122.168V0.399999ZM121.748 13H117.653V8.8H120.803V9.85H121.748V13ZM122.168 9.85H123.113V8.695L117.653 7.015V2.5L119.753 0.399999H121.748V3.55H120.803V4.705L126.263 6.385V10.9L124.163 13H122.168V9.85ZM131.933 5.65H133.613V7.75H131.933V5.65ZM131.513 13H127.312V9.85H128.363V3.55H127.312V0.399999H131.513V13ZM131.933 9.85H133.613V8.275H136.763V13H131.933V9.85ZM131.933 0.399999H136.763V5.125H133.613V3.55H131.933V0.399999Z" fill="#187B63"/>
</svg>
