<svg width="99" height="13" viewBox="0 0 99 13" fill="none" xmlns="http://www.w3.org/2000/svg">
<path d="M4.2 9.85H5.25V13H0V9.85H1.05V3.55H0V0.399999H4.2V9.85ZM4.62 5.65H6.3V3.55H4.62V0.399999H7.35L9.45 2.5V6.7L7.35 8.8H4.62V5.65ZM12.5359 13H8.79785V9.85H9.84785L11.3389 0.399999H13.1029L13.8379 4.915L12.5359 13ZM13.8799 7.33H14.6569L13.5439 0.399999H16.7569L18.2479 9.85H19.2979V13H15.5599L15.0559 9.85H13.4809L13.8799 7.33ZM25.0058 9.85H26.1188V8.275H24.5438V5.965H29.2688V13H25.0058V9.85ZM25.0058 0.399999H29.2688V5.125H26.1188V3.55H25.0058V0.399999ZM24.5858 13V9.85H23.4938V3.55H24.5858V0.399999H22.4438L20.3438 2.5V10.9L22.4438 13H24.5858ZM34.0485 13H30.3105V9.85H31.3605L32.8515 0.399999H34.6155L35.3505 4.915L34.0485 13ZM35.3925 7.33H36.1695L35.0565 0.399999H38.2695L39.7605 9.85H40.8105V13H37.0725L36.5685 9.85H34.9935L35.3925 7.33ZM48.1564 10.795L44.1454 3.55H41.8564V0.399999H45.4264L49.6894 8.044L48.1564 10.795ZM48.4084 4.873L50.8864 0.399999H54.4564V3.55H53.4064V9.85H54.4564V13H50.2564V8.212L48.4084 4.873ZM43.8934 3.97L46.0564 7.897V13H41.8564V9.85H42.9064V3.97H43.8934ZM60.1346 5.65H61.8146V7.75H60.1346V5.65ZM59.7146 13H55.5146V9.85H56.5646V3.55H55.5146V0.399999H59.7146V13ZM60.1346 9.85H61.8146V8.275H64.9646V13H60.1346V9.85ZM60.1346 0.399999H64.9646V5.125H61.8146V3.55H60.1346V0.399999ZM69.5846 0.399999L74.4146 9.85H76.5146V13H72.9446L68.1146 3.55H66.0146V0.399999H69.5846ZM72.3146 4.831V0.399999H76.5146V3.55H75.4646V9.43H74.6666L72.3146 4.831ZM67.0646 3.97V9.85H66.0146V13H70.2146V8.569L67.8626 3.97H67.0646ZM80.8155 0.399999V3.55H80.1855V5.125H77.5605V0.399999H80.8155ZM84.8055 3.55V0.399999H88.0605V5.125H85.4355V3.55H84.8055ZM84.3855 0.399999V9.85H85.4355V13H80.1855V9.85H81.2355V0.399999H84.3855ZM95.9314 0.399999L98.0314 2.5V10.9L95.9314 13H93.7684V9.85H94.8814V3.55H93.7684V0.399999H95.9314ZM91.2064 13L89.1064 10.9V2.5L91.2064 0.399999H93.3484V3.55H92.2564V9.85H93.3484V13H91.2064Z" fill="#187B63"/>
</svg>
