<svg width="59" height="13" viewBox="0 0 59 13" fill="none" xmlns="http://www.w3.org/2000/svg">
<path d="M4.2 9.85H5.25V13H0V9.85H1.05V3.55H0V0.399999H4.2V9.85ZM4.62 5.65H6.3V3.55H4.62V0.399999H7.35L9.45 2.5V6.7L7.35 8.8H4.62V5.65ZM15.12 5.65H16.8V7.75H15.12V5.65ZM14.7 13H10.5V9.85H11.55V3.55H10.5V0.399999H14.7V13ZM15.12 9.85H16.8V8.275H19.95V13H15.12V9.85ZM15.12 0.399999H19.95V5.125H16.8V3.55H15.12V0.399999ZM25.62 5.65H27.3V3.55H25.62V0.399999H28.35L30.45 2.5V6.175L29.4 7.225L30.114 9.85H31.164V13H27.72L26.565 8.8H25.62V5.65ZM25.2 13H21V9.85H22.05V3.55H21V0.399999H25.2V13ZM38.5178 5.65V8.275H36.8378V5.65H38.5178ZM41.6678 0.399999V5.125H38.5178V3.55H36.8378V0.399999H41.6678ZM36.4178 9.85H37.4678V13H32.2178V9.85H33.2678V3.55H32.2178V0.399999H36.4178V9.85ZM47.9678 0.399999V3.55H46.9178V9.85H47.9678V13H42.7178V9.85H43.7678V3.55H42.7178V0.399999H47.9678ZM53.6337 13V9.85H55.3137V8.275H58.4637V13H53.6337ZM53.2137 13H49.0137V9.85H50.0637V3.55H49.0137V0.399999H54.2637V3.55H53.2137V13Z" fill="#187B63"/>
</svg>
