<svg width="151" height="13" viewBox="0 0 151 13" fill="none" xmlns="http://www.w3.org/2000/svg">
<path d="M4.62 5.65H6.3V3.55H4.62V0.399999H7.35L9.45 2.5V6.175L8.4 7.225L9.114 9.85H10.164V13H6.72L5.565 8.8H4.62V5.65ZM4.2 13H0V9.85H1.05V3.55H0V0.399999H4.2V13ZM15.8378 5.65H17.5178V7.75H15.8378V5.65ZM15.4178 13H11.2178V9.85H12.2678V3.55H11.2178V0.399999H15.4178V13ZM15.8378 9.85H17.5178V8.275H20.6678V13H15.8378V9.85ZM15.8378 0.399999H20.6678V5.125H17.5178V3.55H15.8378V0.399999ZM26.3798 3.55H27.4928V5.125H30.6428V0.399999H26.3798V3.55ZM26.3798 9.85H27.4928V8.275H30.6428V13H26.3798V9.85ZM25.9598 13H23.8178L21.7178 10.9V2.5L23.8178 0.399999H25.9598V3.55H24.8678V9.85H25.9598V13ZM38.5096 0.399999L40.6096 2.5V10.9L38.5096 13H36.3466V9.85H37.4596V3.55H36.3466V0.399999H38.5096ZM33.7846 13L31.6846 10.9V2.5L33.7846 0.399999H35.9266V3.55H34.8346V9.85H35.9266V13H33.7846ZM46.2714 5.65H47.9514V3.55H46.2714V0.399999H49.0014L51.1014 2.5V6.175L50.0514 7.225L50.7654 9.85H51.8154V13H48.3714L47.2164 8.8H46.2714V5.65ZM45.8514 13H41.6514V9.85H42.7014V3.55H41.6514V0.399999H45.8514V13ZM57.4891 9.85H59.6941V3.55H57.4891V0.399999H60.7441L62.8441 2.5V10.9L60.7441 13H57.4891V9.85ZM57.0691 13H52.8691V9.85H53.9191V3.55H52.8691V0.399999H57.0691V13ZM68.5223 5.65H70.2023V7.75H68.5223V5.65ZM68.1023 13H63.9023V9.85H64.9523V3.55H63.9023V0.399999H68.1023V13ZM68.5223 9.85H70.2023V8.275H73.3523V13H68.5223V9.85ZM68.5223 0.399999H73.3523V5.125H70.2023V3.55H68.5223V0.399999ZM83.8523 9.85H84.9023V13H79.6523V9.85H80.7023V3.55H79.6523V0.399999H83.8523V9.85ZM84.2723 5.65H85.9523V3.55H84.2723V0.399999H87.0023L89.1023 2.5V6.7L87.0023 8.8H84.2723V5.65ZM94.7723 5.65H96.4523V7.75H94.7723V5.65ZM94.3523 13H90.1523V9.85H91.2023V3.55H90.1523V0.399999H94.3523V13ZM94.7723 9.85H96.4523V8.275H99.6023V13H94.7723V9.85ZM94.7723 0.399999H99.6023V5.125H96.4523V3.55H94.7723V0.399999ZM105.167 0.399999H109.262V4.6H106.112V3.55H105.167V0.399999ZM104.747 13H100.652V8.8H103.802V9.85H104.747V13ZM105.167 9.85H106.112V8.695L100.652 7.015V2.5L102.752 0.399999H104.747V3.55H103.802V4.705L109.262 6.385V10.9L107.162 13H105.167V9.85ZM114.827 0.399999H118.922V4.6H115.772V3.55H114.827V0.399999ZM114.407 13H110.312V8.8H113.462V9.85H114.407V13ZM114.827 9.85H115.772V8.695L110.312 7.015V2.5L112.412 0.399999H114.407V3.55H113.462V4.705L118.922 6.385V10.9L116.822 13H114.827V9.85ZM126.796 0.399999L128.896 2.5V10.9L126.796 13H124.633V9.85H125.746V3.55H124.633V0.399999H126.796ZM122.071 13L119.971 10.9V2.5L122.071 0.399999H124.213V3.55H123.121V9.85H124.213V13H122.071ZM133.676 13H129.938V9.85H130.988L132.479 0.399999H134.243L134.978 4.915L133.676 13ZM135.02 7.33H135.797L134.684 0.399999H137.897L139.388 9.85H140.438V13H136.7L136.196 9.85H134.621L135.02 7.33ZM146.103 13V9.85H147.783V8.275H150.933V13H146.103ZM145.683 13H141.483V9.85H142.533V3.55H141.483V0.399999H146.733V3.55H145.683V13Z" fill="#187B63"/>
</svg>
