<svg width="121" height="13" viewBox="0 0 121 13" fill="none" xmlns="http://www.w3.org/2000/svg">
<path d="M3.255 0.399999V3.55H2.625V5.125H0V0.399999H3.255ZM7.245 3.55V0.399999H10.5V5.125H7.875V3.55H7.245ZM6.825 0.399999V9.85H7.875V13H2.625V9.85H3.675V0.399999H6.825ZM16.1659 5.65H17.8459V3.55H16.1659V0.399999H18.8959L20.9959 2.5V6.175L19.9459 7.225L20.6599 9.85H21.7099V13H18.2659L17.1109 8.8H16.1659V5.65ZM15.7459 13H11.5459V9.85H12.5959V3.55H11.5459V0.399999H15.7459V13ZM27.3837 5.65H29.0637V7.75H27.3837V5.65ZM26.9637 13H22.7637V9.85H23.8137V3.55H22.7637V0.399999H26.9637V13ZM27.3837 9.85H29.0637V8.275H32.2137V13H27.3837V9.85ZM27.3837 0.399999H32.2137V5.125H29.0637V3.55H27.3837V0.399999ZM38.5137 0.399999V3.55H37.4637V9.85H38.5137V13H33.2637V9.85H34.3137V3.55H33.2637V0.399999H38.5137ZM43.1296 0.399999L47.9596 9.85H50.0596V13H46.4896L41.6596 3.55H39.5596V0.399999H43.1296ZM45.8596 4.831V0.399999H50.0596V3.55H49.0096V9.43H48.2116L45.8596 4.831ZM40.6096 3.97V9.85H39.5596V13H43.7596V8.569L41.4076 3.97H40.6096ZM57.9305 0.399999L60.0305 2.5V10.9L57.9305 13H55.7675V9.85H56.8805V3.55H55.7675V0.399999H57.9305ZM53.2055 13L51.1055 10.9V2.5L53.2055 0.399999H55.3475V3.55H54.2555V9.85H55.3475V13H53.2055ZM70.9423 9.85H73.1473V3.55H70.9423V0.399999H74.1973L76.2973 2.5V10.9L74.1973 13H70.9423V9.85ZM70.5223 13H66.3223V9.85H67.3723V3.55H66.3223V0.399999H70.5223V13ZM84.1805 0.399999L86.2805 2.5V10.9L84.1805 13H82.0175V9.85H83.1305V3.55H82.0175V0.399999H84.1805ZM79.4555 13L77.3555 10.9V2.5L79.4555 0.399999H81.5975V3.55H80.5055V9.85H81.5975V13H79.4555ZM97.1923 9.85H99.3973V3.55H97.1923V0.399999H100.447L102.547 2.5V10.9L100.447 13H97.1923V9.85ZM96.7723 13H92.5723V9.85H93.6223V3.55H92.5723V0.399999H96.7723V13ZM108.855 0.399999V3.55H107.805V9.85H108.855V13H103.605V9.85H104.655V3.55H103.605V0.399999H108.855ZM113.639 13H109.901V9.85H110.951L112.442 0.399999H114.206L114.941 4.915L113.639 13ZM114.983 7.33H115.76L114.647 0.399999H117.86L119.351 9.85H120.401V13H116.663L116.159 9.85H114.584L114.983 7.33Z" fill="#187B63"/>
</svg>
