<svg width="24" height="25" viewBox="0 0 24 25" fill="none" xmlns="http://www.w3.org/2000/svg">
<path d="M9 22.9845V16.8917C9 16.6224 9.10536 16.3641 9.29289 16.1737C9.48043 15.9833 9.73478 15.8763 10 15.8763H14C14.2652 15.8763 14.5196 15.9833 14.7071 16.1737C14.8946 16.3641 15 16.6224 15 16.8917V22.9845C15 23.2539 15.1054 23.5121 15.2929 23.7026C15.4804 23.893 15.7348 24 16 24H22C22.2652 24 22.5196 23.893 22.7071 23.7026C22.8946 23.5121 23 23.2539 23 22.9845V11.2432C22.9978 11.1027 22.9679 10.964 22.912 10.8354C22.8562 10.7068 22.7756 10.5908 22.675 10.4943L12.675 1.26624C12.4907 1.09498 12.2499 1 12 1C11.7501 1 11.5093 1.09498 11.325 1.26624L1.325 10.4943C1.22437 10.5908 1.14378 10.7068 1.08796 10.8354C1.03215 10.964 1.00224 11.1027 1 11.2432V22.9845C1 23.2539 1.10536 23.5121 1.29289 23.7026C1.48043 23.893 1.73478 24 2 24H8C8.26522 24 8.51957 23.893 8.70711 23.7026C8.89464 23.5121 9 23.2539 9 22.9845Z" stroke="white" stroke-linecap="round" stroke-linejoin="round"/>
</svg>
