<svg width="192" height="92" viewBox="0 0 192 92" fill="none" xmlns="http://www.w3.org/2000/svg">
<path d="M11.0103 32V24.35H13.0503V9.05H10.5003V1.4H23.2503V9.05H20.7003V26.9L15.6003 32H11.0103ZM9.99029 24.35V32H5.40029L0.300293 26.9V20.525H7.95029V24.35H9.99029ZM36.0003 24.35H38.5503V32H25.8003V24.35H28.3503V9.05H25.8003V1.4H36.0003V24.35ZM37.0203 14.15H41.1003V9.05H37.0203V1.4H43.6503L48.7503 6.5V16.7L43.6503 21.8H37.0203V14.15ZM51.3003 19.25V14.15H66.6003V19.25H51.3003ZM80.4524 9.05H83.1554V12.875H90.8054V1.4H80.4524V9.05ZM80.4524 24.35H83.1554V20.525H90.8054V32H80.4524V24.35ZM79.4324 32H74.2304L69.1304 26.9V6.5L74.2304 1.4H79.4324V9.05H76.7804V24.35H79.4324V32ZM104.555 14.15H108.635V9.05H104.555V1.4H111.185L116.285 6.5V15.425L113.735 17.975L115.469 24.35H118.019V32H109.655L106.85 21.8H104.555V14.15ZM103.535 32H93.3354V24.35H95.8854V9.05H93.3354V1.4H103.535V32ZM137.154 1.4L142.254 6.5V26.9L137.154 32H131.901V24.35H134.604V9.05H131.901V1.4H137.154ZM125.679 32L120.579 26.9V6.5L125.679 1.4H130.881V9.05H128.229V24.35H130.881V32H125.679ZM155.749 1.4H165.694V11.6H158.044V9.05H155.749V1.4ZM154.729 32H144.784V21.8H152.434V24.35H154.729V32ZM155.749 24.35H158.044V21.545L144.784 17.465V6.5L149.884 1.4H154.729V9.05H152.434V11.855L165.694 15.935V26.9L160.594 32H155.749V24.35ZM179.207 1.4H189.152V11.6H181.502V9.05H179.207V1.4ZM178.187 32H168.242V21.8H175.892V24.35H178.187V32ZM179.207 24.35H181.502V21.545L168.242 17.465V6.5L173.342 1.4H178.187V9.05H175.892V11.855L189.152 15.935V26.9L184.052 32H179.207V24.35Z" fill="#303437"/>
<path d="M20.1955 59H25.9555V42.8H40.3555V53.6H36.7555V75.2H40.3555V86H25.9555V69.8H20.1955V59ZM18.7555 86H4.35547V75.2H7.95547V53.6H4.35547V42.8H18.7555V86ZM67.3414 42.8L74.5414 50V78.8L67.3414 86H59.9254V75.2H63.7414V53.6H59.9254V42.8H67.3414ZM51.1414 86L43.9414 78.8V50L51.1414 42.8H58.4854V53.6H54.7414V75.2H58.4854V86H51.1414ZM97.6973 86V75.2H101.513V42.8H115.913V53.6H112.313V78.8L105.113 86H97.6973ZM96.2573 86H88.9133L81.7133 78.8V53.6H78.1133V42.8H92.5133V75.2H96.2573V86ZM135.007 42.8H149.047V57.2H138.247V53.6H135.007V42.8ZM133.567 86H119.527V71.6H130.327V75.2H133.567V86ZM135.007 75.2H138.247V71.24L119.527 65.48V50L126.727 42.8H133.567V53.6H130.327V57.56L149.047 63.32V78.8L141.847 86H135.007V75.2ZM168.485 60.8H174.245V68H168.485V60.8ZM167.045 86H152.645V75.2H156.245V53.6H152.645V42.8H167.045V86ZM168.485 75.2H174.245V69.8H185.045V86H168.485V75.2ZM168.485 42.8H185.045V59H174.245V53.6H168.485V42.8Z" fill="#187B63"/>
</svg>
