<svg width="20" height="25" viewBox="0 0 20 25" fill="none" xmlns="http://www.w3.org/2000/svg">
<path d="M19.1566 21.6581H0.830482C0.688485 21.6577 0.548955 21.6209 0.425143 21.5514C0.30133 21.4819 0.197346 21.3819 0.123065 21.2609C0.0487844 21.1398 0.00667294 21.0018 0.000729984 20.86C-0.00521297 20.7181 0.0252101 20.577 0.0891097 20.4502C1.11692 18.3786 1.65554 16.0988 1.66349 13.7862V10.8291C1.66349 8.61979 2.54111 6.50102 4.1033 4.93883C5.66548 3.37665 7.78426 2.49902 9.99352 2.49902C12.2028 2.49902 14.3216 3.37665 15.8837 4.93883C17.4459 6.50102 18.3235 8.61979 18.3235 10.8291V13.7696C18.3315 16.0821 18.8701 18.362 19.8979 20.4336C19.9658 20.561 19.9993 20.7038 19.9954 20.8481C19.9914 20.9923 19.95 21.1331 19.8753 21.2565C19.8005 21.38 19.695 21.4819 19.569 21.5523C19.443 21.6227 19.3009 21.6592 19.1566 21.6581ZM2.12164 19.9921H17.8654C17.071 18.0135 16.6611 15.9016 16.6575 13.7696V10.8291C16.6575 9.06165 15.9554 7.36662 14.7057 6.11688C13.4559 4.86713 11.7609 4.16503 9.99352 4.16503C8.22611 4.16503 6.53109 4.86713 5.28134 6.11688C4.03159 7.36662 3.32949 9.06165 3.32949 10.8291V13.7696C3.32593 15.9016 2.916 18.0135 2.12164 19.9921Z" fill="#D9D9D9"/>
<path d="M9.99363 24.9901C8.889 24.9901 7.82961 24.5513 7.04852 23.7702C6.26743 22.9891 5.82861 21.9297 5.82861 20.8251C5.82861 20.6041 5.91638 20.3923 6.07259 20.236C6.22881 20.0798 6.44069 19.9921 6.66162 19.9921C6.88254 19.9921 7.09442 20.0798 7.25064 20.236C7.40686 20.3923 7.49462 20.6041 7.49462 20.8251C7.4952 21.4876 7.75887 22.1228 8.22766 22.591C8.70437 23.0434 9.33647 23.2955 9.99363 23.2955C10.6508 23.2955 11.2829 23.0434 11.7596 22.591C11.8373 22.5134 11.9295 22.4518 12.0309 22.4097C12.1324 22.3677 12.2412 22.3461 12.351 22.3461C12.4609 22.3461 12.5696 22.3677 12.6711 22.4097C12.7726 22.4518 12.8648 22.5134 12.9425 22.591C13.0201 22.6687 13.0817 22.7609 13.1238 22.8624C13.1658 22.9639 13.1874 23.0726 13.1874 23.1825C13.1874 23.2923 13.1658 23.4011 13.1238 23.5025C13.0817 23.604 13.0201 23.6962 12.9425 23.7739C12.555 24.1604 12.0951 24.4668 11.5891 24.6755C11.0831 24.8842 10.541 24.9911 9.99363 24.9901Z" fill="#D9D9D9"/>
<path d="M9.99365 4.16502C9.77272 4.16502 9.56084 4.07725 9.40463 3.92103C9.24841 3.76482 9.16064 3.55294 9.16064 3.33201V0.833003C9.16064 0.612077 9.24841 0.400199 9.40463 0.243981C9.56084 0.0877626 9.77272 0 9.99365 0C10.2146 0 10.4265 0.0877626 10.5827 0.243981C10.7389 0.400199 10.8267 0.612077 10.8267 0.833003V3.33201C10.8267 3.55294 10.7389 3.76482 10.5827 3.92103C10.4265 4.07725 10.2146 4.16502 9.99365 4.16502Z" fill="#D9D9D9"/>
</svg>
