<svg width="26" height="24" viewBox="0 0 26 24" fill="none" xmlns="http://www.w3.org/2000/svg">
<path d="M13.9511 2.16312L15.4167 6.67376C15.8183 7.90983 16.9701 8.74671 18.2698 8.74671L23.0126 8.74671C23.9813 8.74671 24.3841 9.98633 23.6004 10.5557L19.7634 13.3435C18.7119 14.1074 18.272 15.4615 18.6736 16.6976L20.1392 21.2082C20.4385 22.1295 19.3841 22.8956 18.6003 22.3262L14.7634 19.5385C13.7119 18.7746 12.2881 18.7746 11.2366 19.5385L7.39966 22.3262C6.61595 22.8956 5.56147 22.1295 5.86082 21.2082L7.32642 16.6976C7.72804 15.4615 7.28806 14.1074 6.2366 13.3435L2.39962 10.5557C1.61591 9.98633 2.01868 8.74671 2.9874 8.74671L7.73018 8.74671C9.02986 8.74671 10.1817 7.90983 10.5833 6.67376L12.0489 2.16312C12.3483 1.24181 13.6517 1.24181 13.9511 2.16312Z" stroke="white" stroke-width="2"/>
</svg>
